<svg width="12" height="22" viewBox="0 0 12 22" fill="none" xmlns="http://www.w3.org/2000/svg">
<path d="M8.383 10.9L0.440997 2.96404C0.301928 2.82451 0.191702 2.65895 0.116614 2.47682C0.0415255 2.29469 0.00304557 2.09956 0.00337057 1.90256C0.00369557 1.70556 0.042819 1.51056 0.118508 1.32868C0.194196 1.1468 0.304968 0.981606 0.444497 0.842536C0.584027 0.703466 0.749582 0.593241 0.931711 0.518152C1.11384 0.443064 1.30897 0.404584 1.50597 0.404909C1.70297 0.405234 1.89798 0.444358 2.07986 0.520046C2.26174 0.595735 2.42693 0.706507 2.566 0.846036L11.566 9.83804C11.8374 10.1112 11.9933 10.4783 12.0015 10.8632C12.0097 11.2482 11.8695 11.6216 11.61 11.906L2.574 20.96C2.43583 21.1035 2.27047 21.218 2.08758 21.2968C1.90469 21.3757 1.70792 21.4174 1.50876 21.4194C1.30961 21.4214 1.11204 21.3837 0.927597 21.3085C0.743154 21.2334 0.575526 21.1222 0.434493 20.9816C0.29346 20.841 0.181847 20.6736 0.106165 20.4894C0.0304833 20.3052 -0.00775149 20.1077 -0.00630827 19.9086C-0.00486505 19.7094 0.0362271 19.5125 0.114571 19.3294C0.192915 19.1463 0.306941 18.9806 0.449997 18.842L8.383 10.9Z" fill="#4A4B4D"/>
</svg>
