<svg width="13" height="22" viewBox="0 0 13 22" fill="none" xmlns="http://www.w3.org/2000/svg">
<path d="M3.617 10.9L11.559 2.96404C11.8399 2.68224 11.9973 2.30042 11.9966 1.90256C11.996 1.5047 11.8373 1.1234 11.5555 0.842536C11.2737 0.561672 10.8919 0.404253 10.494 0.404909C10.0962 0.405566 9.71487 0.564244 9.434 0.846036L0.434002 9.83804C0.162645 10.1112 0.00672985 10.4783 -0.00146076 10.8632C-0.00965138 11.2482 0.130509 11.6216 0.390002 11.906L9.426 20.96C9.5636 21.1059 9.72904 21.2226 9.91254 21.3034C10.096 21.3842 10.2939 21.4273 10.4943 21.4304C10.6948 21.4334 10.8938 21.3962 11.0797 21.321C11.2655 21.2458 11.4344 21.1341 11.5763 20.9925C11.7183 20.8508 11.8304 20.6822 11.906 20.4966C11.9817 20.3109 12.0194 20.1119 12.0168 19.9115C12.0143 19.711 11.9716 19.5131 11.8912 19.3294C11.8109 19.1457 11.6945 18.98 11.549 18.842L3.617 10.9Z" fill="#4A4B4D"/>
</svg>
