<svg width="13" height="7" viewBox="0 0 13 7" fill="none" xmlns="http://www.w3.org/2000/svg">
<path d="M6.56899 6.34402L12.104 0.794021C12.1885 0.706234 12.2352 0.588779 12.234 0.466926C12.2328 0.345073 12.1838 0.228562 12.0976 0.14246C12.0113 0.0563589 11.8947 0.00754855 11.7729 0.00653127C11.651 0.00551399 11.5337 0.0523711 11.446 0.137021L6.23999 5.35702L1.03399 0.137021C0.990854 0.0937504 0.939615 0.0594004 0.883201 0.0359323C0.826786 0.0124642 0.766302 0.000337537 0.705201 0.000244678C0.6441 0.000151819 0.583579 0.0120946 0.527094 0.0353911C0.470609 0.0586877 0.419264 0.0928817 0.375994 0.136021C0.332724 0.17916 0.298373 0.2304 0.274905 0.286814C0.251437 0.343229 0.23931 0.403713 0.239218 0.464814C0.23903 0.588213 0.28787 0.706632 0.374994 0.794021L5.90999 6.34402C5.9532 6.38741 6.00455 6.42184 6.06109 6.44533C6.11764 6.46882 6.17826 6.48091 6.23949 6.48091C6.30072 6.48091 6.36135 6.46882 6.4179 6.44533C6.47444 6.42184 6.52579 6.38741 6.56899 6.34402Z" fill="black"/>
</svg>
