<svg width="8" height="13" viewBox="0 0 8 13" fill="none" xmlns="http://www.w3.org/2000/svg">
<path d="M7.24489 6.37901L1.64489 0.844014C1.55656 0.756868 1.43747 0.708008 1.31339 0.708008C1.18931 0.708008 1.07022 0.756868 0.981888 0.844014C0.938289 0.886997 0.903668 0.938217 0.880038 0.994697C0.856407 1.05118 0.844238 1.11179 0.844238 1.17301C0.844238 1.23424 0.856407 1.29485 0.880038 1.35133C0.903668 1.40781 0.938289 1.45903 0.981888 1.50201L6.24489 6.70801L0.982888 11.914C0.939289 11.957 0.904668 12.0082 0.881038 12.0647C0.857407 12.1212 0.845238 12.1818 0.845238 12.243C0.845238 12.3042 0.857407 12.3649 0.881038 12.4213C0.904668 12.4778 0.939289 12.529 0.982888 12.572C1.07122 12.6592 1.19031 12.708 1.31439 12.708C1.43847 12.708 1.55756 12.6592 1.64589 12.572L7.24489 7.03701C7.28864 6.99401 7.32339 6.94273 7.34711 6.88616C7.37083 6.82959 7.38305 6.76886 7.38305 6.70751C7.38305 6.64617 7.37083 6.58544 7.34711 6.52887C7.32339 6.4723 7.28864 6.42101 7.24489 6.37801V6.37901Z" fill="white"/>
</svg>
