<svg width="38" height="38" viewBox="0 0 38 38" fill="none" xmlns="http://www.w3.org/2000/svg">
<path d="M19 38C13.9609 38 9.12816 35.9982 5.56497 32.435C2.00178 28.8718 0 24.0391 0 19C0 13.9609 2.00178 9.12816 5.56497 5.56497C9.12816 2.00178 13.9609 0 19 0C24.0391 0 28.8718 2.00178 32.435 5.56497C35.9982 9.12816 38 13.9609 38 19C38 24.0391 35.9982 28.8718 32.435 32.435C28.8718 35.9982 24.0391 38 19 38Z" fill="#004197"/>
<path d="M16.41 29.944H21.042V18.374H24.275L24.619 14.5H21.042V12.294C21.042 11.38 21.226 11.019 22.112 11.019H24.619V6.99902H21.411C17.964 6.99902 16.411 8.51303 16.411 11.411V14.5H14.001V18.423H16.411L16.41 29.944Z" fill="white"/>
</svg>
