<svg width="38" height="38" viewBox="0 0 38 38" fill="none" xmlns="http://www.w3.org/2000/svg">
<path d="M19 38C13.9609 38 9.12816 35.9982 5.56497 32.435C2.00178 28.8718 0 24.0391 0 19C0 13.9609 2.00178 9.12816 5.56497 5.56497C9.12816 2.00178 13.9609 0 19 0C24.0391 0 28.8718 2.00178 32.435 5.56497C35.9982 9.12816 38 13.9609 38 19C38 24.0391 35.9982 28.8718 32.435 32.435C28.8718 35.9982 24.0391 38 19 38Z" fill="#004197"/>
<path d="M19 10.95C21.786 10.95 22.116 10.961 23.217 11.011C23.8785 11.0193 24.5337 11.141 25.154 11.371C25.6041 11.5442 26.0129 11.81 26.354 12.151C26.695 12.4921 26.9607 12.9009 27.134 13.351C27.3639 13.9713 27.4857 14.6265 27.494 15.288C27.544 16.388 27.555 16.719 27.555 19.505C27.555 22.291 27.544 22.621 27.494 23.721C27.4858 24.3828 27.364 25.0384 27.134 25.659C26.9607 26.1091 26.695 26.5179 26.354 26.859C26.0129 27.2 25.6041 27.4657 25.154 27.639C24.5337 27.869 23.8785 27.9904 23.217 27.998C22.117 28.048 21.787 28.059 19 28.059C16.213 28.059 15.884 28.048 14.784 27.998C14.1215 27.9906 13.4652 27.8692 12.844 27.639C12.3941 27.4654 11.9855 27.1995 11.6445 26.8585C11.3035 26.5175 11.0376 26.1089 10.864 25.659C10.6339 25.0384 10.5125 24.3828 10.505 23.721C10.455 22.621 10.444 22.291 10.444 19.505C10.444 16.719 10.455 16.389 10.505 15.288C10.5126 14.6265 10.634 13.9713 10.864 13.351C11.0374 12.9007 11.3031 12.4917 11.6441 12.1504C11.9851 11.809 12.3939 11.5428 12.844 11.369C13.4646 11.1391 14.1202 11.0173 14.782 11.009C15.882 10.959 16.212 10.948 18.998 10.948M18.998 9.06799C16.164 9.06799 15.809 9.081 14.698 9.131C13.8323 9.14857 12.9759 9.31256 12.165 9.616C11.4719 9.88422 10.8426 10.2942 10.3172 10.8198C9.7918 11.3454 9.38198 11.9749 9.11398 12.668C8.80995 13.4787 8.64594 14.3353 8.62898 15.201C8.57798 16.314 8.56598 16.669 8.56598 19.501C8.56598 22.333 8.57798 22.69 8.62898 23.801C8.64594 24.6667 8.80995 25.5233 9.11398 26.334C9.38198 27.0271 9.7918 27.6566 10.3172 28.1822C10.8426 28.7078 11.4719 29.1178 12.165 29.386C12.976 29.6889 13.8324 29.8529 14.698 29.871C15.811 29.921 16.166 29.933 18.998 29.933C21.83 29.933 22.187 29.921 23.298 29.871C24.1636 29.853 25.02 29.6891 25.831 29.386C26.524 29.1176 27.1535 28.7076 27.679 28.182C28.2045 27.6565 28.6146 27.0271 28.883 26.334C29.1865 25.5231 29.3505 24.6667 29.368 23.801C29.419 22.688 29.431 22.333 29.431 19.501C29.431 16.669 29.419 16.312 29.368 15.201C29.3505 14.3353 29.1865 13.4789 28.883 12.668C28.6146 11.9749 28.2045 11.3455 27.679 10.82C27.1535 10.2944 26.524 9.88437 25.831 9.616C25.0201 9.31245 24.1636 9.14846 23.298 9.131C22.185 9.081 21.83 9.06799 18.998 9.06799Z" fill="white"/>
<path d="M19 14.147C17.9403 14.147 16.9043 14.4612 16.0232 15.05C15.1421 15.6387 14.4554 16.4755 14.0498 17.4546C13.6443 18.4336 13.5382 19.5109 13.7449 20.5503C13.9517 21.5896 14.462 22.5443 15.2113 23.2937C15.9606 24.043 16.9153 24.5533 17.9547 24.76C18.994 24.9668 20.0713 24.8607 21.0504 24.4551C22.0294 24.0496 22.8662 23.3628 23.455 22.4817C24.0437 21.6006 24.358 20.5647 24.358 19.505C24.358 18.8014 24.2194 18.1046 23.9501 17.4546C23.6808 16.8045 23.2862 16.2138 22.7886 15.7163C22.2911 15.2188 21.7005 14.8241 21.0504 14.5548C20.4003 14.2856 19.7036 14.147 19 14.147ZM19 22.983C18.3121 22.983 17.6396 22.779 17.0677 22.3968C16.4957 22.0147 16.05 21.4715 15.7867 20.836C15.5235 20.2004 15.4546 19.5011 15.5888 18.8265C15.723 18.1518 16.0542 17.5321 16.5407 17.0457C17.0271 16.5592 17.6468 16.228 18.3214 16.0938C18.9961 15.9596 19.6954 16.0285 20.3309 16.2917C20.9665 16.555 21.5097 17.0008 21.8918 17.5727C22.274 18.1447 22.478 18.8171 22.478 19.505C22.478 19.9617 22.388 20.414 22.2132 20.836C22.0384 21.2579 21.7822 21.6413 21.4593 21.9643C21.1363 22.2873 20.7529 22.5434 20.3309 22.7182C19.909 22.893 19.4567 22.983 19 22.983Z" fill="white"/>
<path d="M25.822 13.935C25.822 14.1826 25.7486 14.4247 25.611 14.6306C25.4734 14.8364 25.2779 14.9969 25.0491 15.0917C24.8203 15.1864 24.5686 15.2112 24.3257 15.1629C24.0829 15.1146 23.8598 14.9954 23.6847 14.8203C23.5096 14.6452 23.3904 14.4221 23.3421 14.1792C23.2937 13.9364 23.3185 13.6846 23.4133 13.4559C23.5081 13.2271 23.6685 13.0316 23.8744 12.894C24.0803 12.7564 24.3224 12.683 24.57 12.683C24.902 12.683 25.2205 12.8149 25.4553 13.0497C25.6901 13.2845 25.822 13.6029 25.822 13.935Z" fill="white"/>
</svg>
