<svg width="23" height="23" viewBox="0 0 23 23" fill="none" xmlns="http://www.w3.org/2000/svg">
<path d="M16.8451 0.937012H16.7851C15.745 0.94224 14.7225 1.20666 13.8102 1.70637C12.8979 2.20608 12.1246 2.9253 11.5601 3.79901C10.9957 2.9253 10.2223 2.20608 9.31003 1.70637C8.39774 1.20666 7.37529 0.94224 6.33512 0.937012H6.28012C4.64159 0.952296 3.07533 1.61373 1.92183 2.77754C0.768327 3.94134 0.120836 5.51342 0.120117 7.15201C0.25589 9.79039 1.16922 12.3296 2.74512 14.45C5.29186 17.6578 8.25497 20.5116 11.5561 22.936C14.8573 20.5116 17.8204 17.6578 20.3671 14.45C21.9448 12.3295 22.8596 9.78951 22.9961 7.15001C22.9949 5.5133 22.3484 3.94308 21.1969 2.77996C20.0454 1.61685 18.4817 0.954647 16.8451 0.937012ZM19.1331 13.543C16.9332 16.3377 14.3887 18.8429 11.5601 20.999C8.73327 18.8396 6.19048 16.3317 3.99212 13.535C2.6087 11.6797 1.7981 9.46023 1.66012 7.15001C1.65982 5.91829 2.14646 4.73638 3.01395 3.86196C3.88143 2.98754 5.05943 2.49151 6.29112 2.48201H6.34512C7.1373 2.4825 7.91599 2.68708 8.60612 3.07601C9.28176 3.45617 9.85541 3.99414 10.2781 4.64401C10.4186 4.85859 10.6104 5.0348 10.836 5.15675C11.0617 5.27871 11.3141 5.34257 11.5706 5.34257C11.8271 5.34257 12.0796 5.27871 12.3052 5.15675C12.5309 5.0348 12.7226 4.85859 12.8631 4.64401C13.2873 3.99536 13.8606 3.4577 14.5351 3.07601C15.225 2.68724 16.0033 2.48267 16.7951 2.48201H16.8451C18.077 2.49151 19.2551 2.98768 20.1226 3.86232C20.9902 4.73695 21.4767 5.91911 21.4761 7.15101C21.3261 9.46318 20.5106 11.6826 19.1281 13.542L19.1331 13.543Z" fill="#231F20"/>
</svg>
