<svg width="38" height="39" viewBox="0 0 38 39" fill="none" xmlns="http://www.w3.org/2000/svg">
<path d="M19 38.505C13.9609 38.505 9.12816 36.5032 5.56497 32.94C2.00178 29.3768 0 24.5441 0 19.505C0 14.4659 2.00178 9.63317 5.56497 6.06998C9.12816 2.50679 13.9609 0.505005 19 0.505005C24.0391 0.505005 28.8718 2.50679 32.435 6.06998C35.9982 9.63317 38 14.4659 38 19.505C38 24.5441 35.9982 29.3768 32.435 32.94C28.8718 36.5032 24.0391 38.505 19 38.505Z" fill="#004197"/>
<path d="M13.308 15.192H9.36896V27.916H13.308V15.192Z" fill="white"/>
<path d="M11.32 13.525C11.7852 13.5288 12.241 13.3943 12.6296 13.1386C13.0182 12.8829 13.3221 12.5175 13.5028 12.0888C13.6834 11.6601 13.7326 11.1874 13.6442 10.7307C13.5557 10.274 13.3336 9.85385 13.006 9.52358C12.6784 9.1933 12.2601 8.96778 11.8041 8.87563C11.3481 8.78348 10.875 8.82886 10.4449 9.006C10.0147 9.18314 9.64691 9.48407 9.38806 9.87059C9.1292 10.2571 8.991 10.7118 8.99098 11.177C8.98859 11.7972 9.2326 12.3929 9.66934 12.8332C10.1061 13.2735 10.6998 13.5224 11.32 13.525Z" fill="white"/>
<path d="M19.604 21.2361C19.604 19.4481 20.427 18.3821 22.004 18.3821C23.452 18.3821 24.148 19.4051 24.148 21.2361V27.9151H28.068V19.8591C28.068 16.4511 26.136 14.8031 23.438 14.8031C22.672 14.7921 21.9162 14.9799 21.2443 15.3479C20.5724 15.7159 20.0073 16.2517 19.604 16.9031V15.1901H15.826V27.9131H19.604V21.2361Z" fill="white"/>
</svg>
