<svg width="28" height="22" viewBox="0 0 28 22" fill="none" xmlns="http://www.w3.org/2000/svg">
<path d="M24.75 0H2.75C2.02276 0.00264761 1.32626 0.293675 0.813333 0.809228C0.300405 1.32478 0.0129358 2.02275 0.0139999 2.75L0 19.25C0.00211065 19.9787 0.29252 20.6769 0.807788 21.1922C1.32306 21.7075 2.0213 21.9979 2.75 22H24.75C25.4787 21.9979 26.1769 21.7075 26.6922 21.1922C27.2075 20.6769 27.4979 19.9787 27.5 19.25V2.75C27.4979 2.0213 27.2075 1.32306 26.6922 0.807788C26.1769 0.29252 25.4787 0.00211065 24.75 0ZM24.75 19.25H2.75V5.5L13.75 12.375L24.75 5.5V19.25ZM13.75 9.625L2.75 2.75H24.75L13.75 9.625Z" fill="#231F20"/>
</svg>
