<svg width="20" height="23" viewBox="0 0 20 23" fill="none" xmlns="http://www.w3.org/2000/svg">
<path d="M10.2771 11.917H10.423C11.0269 11.9299 11.6264 11.8124 12.1807 11.5725C12.735 11.3326 13.2311 10.976 13.6351 10.527C15.3891 8.55001 15.0971 5.16001 15.0661 4.83701C15.0967 4.01425 14.9082 3.19813 14.5198 2.47213C14.1315 1.74613 13.5574 1.13629 12.856 0.705006C12.1063 0.286652 11.2626 0.0657352 10.4041 0.063006H10.3271C9.47048 0.0607431 8.62727 0.275415 7.87605 0.687006C7.16721 1.11665 6.58606 1.72793 6.19276 2.45756C5.79946 3.1872 5.60829 4.00869 5.63905 4.83701C5.60705 5.16001 5.31605 8.55001 7.07005 10.527C7.47291 10.9761 7.96805 11.3327 8.52157 11.5727C9.07509 11.8126 9.67392 11.93 10.2771 11.917ZM6.85605 4.95101C6.85605 4.93701 6.85605 4.92401 6.85605 4.91501C7.00605 1.64801 9.32505 1.29801 10.3181 1.29801H10.373C11.603 1.32501 13.6941 1.82601 13.8351 4.91501C13.8326 4.92688 13.8326 4.93913 13.8351 4.95101C13.8351 4.98301 14.1581 8.08101 12.7101 9.71201C12.4148 10.037 12.0514 10.2929 11.6459 10.4615C11.2404 10.63 10.8027 10.707 10.364 10.687H10.3181C9.87995 10.7071 9.44284 10.6301 9.03796 10.4616C8.63309 10.293 8.27046 10.037 7.97604 9.71201C6.54104 8.09001 6.85105 4.97901 6.85505 4.95101H6.85605Z" fill="#222222"/>
<path d="M19.712 17.5401V17.5301C19.712 17.4941 19.712 17.4571 19.712 17.4161C19.685 16.5161 19.625 14.4051 17.648 13.7301L17.602 13.7161C16.2584 13.3461 14.9821 12.7649 13.821 11.9941C13.755 11.9461 13.6801 11.9118 13.6006 11.8931C13.5212 11.8744 13.4388 11.8717 13.3583 11.8851C13.2778 11.8986 13.2008 11.9279 13.1317 11.9715C13.0627 12.015 13.003 12.0718 12.9561 12.1387C12.9093 12.2055 12.8762 12.281 12.8588 12.3607C12.8414 12.4405 12.8401 12.5229 12.8549 12.6032C12.8697 12.6834 12.9003 12.76 12.945 12.8283C12.9896 12.8966 13.0474 12.9553 13.115 13.0011C14.3895 13.8551 15.7941 14.4968 17.274 14.9011C18.336 15.2791 18.454 16.4141 18.486 17.4521C18.4837 17.49 18.4837 17.5281 18.486 17.5661C18.4929 18.0374 18.4594 18.5084 18.386 18.9741C15.906 20.2557 13.1451 20.8978 10.354 20.8421C7.56168 20.8932 4.80035 20.2499 2.31804 18.9701C2.24237 18.5047 2.20891 18.0335 2.21804 17.5621C2.21804 17.5261 2.21804 17.4891 2.21804 17.4481C2.25004 16.4091 2.36803 15.2751 3.43003 14.8971C4.90918 14.4906 6.31341 13.8491 7.58904 12.9971C7.71959 12.9023 7.80767 12.76 7.83428 12.6008C7.86088 12.4417 7.82389 12.2785 7.73127 12.1464C7.63864 12.0143 7.49781 11.9238 7.33914 11.8946C7.18047 11.8654 7.01666 11.8996 6.88304 11.9901C5.72317 12.763 4.44653 13.3445 3.10204 13.7121L3.05604 13.7261C1.07904 14.4051 1.02004 16.5141 0.992035 17.4121C0.994405 17.45 0.994405 17.4881 0.992035 17.5261V17.5401C0.966091 18.2358 1.04429 18.9315 1.22404 19.6041C1.26968 19.723 1.3529 19.8237 1.46104 19.8911C4.17474 21.4057 7.24754 22.1583 10.354 22.0691C13.4603 22.1556 16.5324 21.4032 19.247 19.8911C19.354 19.8224 19.4369 19.7221 19.484 19.6041C19.6576 18.9304 19.7344 18.2354 19.712 17.5401Z" fill="#222222"/>
</svg>
