<svg width="22" height="22" viewBox="0 0 22 22" fill="none" xmlns="http://www.w3.org/2000/svg">
<path d="M2.767 2.76705C4.0881 1.44648 5.77107 0.547245 7.60315 0.183021C9.43524 -0.181203 11.3342 0.0059393 13.0599 0.720789C14.7857 1.43564 16.2607 2.6461 17.2986 4.19915C18.3365 5.7522 18.8907 7.57811 18.891 9.44605C18.8974 11.7293 18.0703 13.9363 16.565 15.6531L21.811 20.9001C21.8728 20.9595 21.9221 21.0307 21.956 21.1094C21.99 21.1882 22.0079 21.2729 22.0087 21.3586C22.0095 21.4444 21.9933 21.5294 21.9608 21.6088C21.9284 21.6881 21.8805 21.7603 21.8198 21.8209C21.7592 21.8815 21.6871 21.9294 21.6077 21.9619C21.5283 21.9943 21.4433 22.0106 21.3576 22.0098C21.2718 22.0089 21.1871 21.991 21.1084 21.9571C21.0296 21.9231 20.9585 21.8738 20.899 21.8121L15.653 16.5661C14.2862 17.7578 12.6053 18.531 10.811 18.7932C9.01669 19.0555 7.18481 18.7957 5.53415 18.0449C3.88349 17.2941 2.48382 16.0841 1.5023 14.5593C0.520786 13.0345 -0.00109013 11.2594 -0.000999156 9.44605C-0.00417923 8.20505 0.238829 6.97573 0.713958 5.82928C1.18909 4.68282 1.8869 3.642 2.767 2.76705ZM3.679 15.2121C4.81926 16.3512 6.27165 17.1267 7.85256 17.4405C9.43348 17.7544 11.072 17.5925 12.5609 16.9753C14.0498 16.3581 15.3223 15.3134 16.2176 13.9732C17.1129 12.6329 17.5908 11.0573 17.5908 9.44555C17.5908 7.83378 17.1129 6.25819 16.2176 4.91794C15.3223 3.57769 14.0498 2.53296 12.5609 1.91579C11.072 1.29862 9.43348 1.13673 7.85256 1.45058C6.27165 1.76443 4.81926 2.53993 3.679 3.67905C2.15182 5.20958 1.29413 7.28342 1.29413 9.44555C1.29413 11.6077 2.15182 13.6815 3.679 15.2121Z" fill="#222222"/>
</svg>
