<svg width="38" height="39" viewBox="0 0 38 39" fill="none" xmlns="http://www.w3.org/2000/svg">
<path d="M19 38.505C13.9609 38.505 9.12816 36.5032 5.56497 32.94C2.00178 29.3768 0 24.5441 0 19.505C0 14.4659 2.00178 9.63317 5.56497 6.06998C9.12816 2.50679 13.9609 0.505005 19 0.505005C24.0391 0.505005 28.8718 2.50679 32.435 6.06998C35.9982 9.63317 38 14.4659 38 19.505C38 24.5441 35.9982 29.3768 32.435 32.94C28.8718 36.5032 24.0391 38.505 19 38.505Z" fill="#004197"/>
<path d="M8.89203 25.877C10.7152 27.0476 12.8256 27.6932 14.9917 27.743C17.1577 27.7928 19.2956 27.2448 21.1706 26.1591C23.0456 25.0735 24.5853 23.4923 25.6205 21.589C26.6557 19.6857 27.1465 17.534 27.039 15.37C27.8515 14.781 28.5522 14.0516 29.108 13.216C28.3514 13.5526 27.5484 13.7734 26.726 13.871C27.5927 13.351 28.2406 12.5335 28.549 11.571C27.7353 12.0553 26.8448 12.3969 25.916 12.581C25.2902 11.9126 24.461 11.4698 23.5574 11.3217C22.6538 11.1735 21.7266 11.3283 20.9201 11.7619C20.1136 12.1955 19.4732 12.8836 19.0984 13.719C18.7236 14.5544 18.6356 15.4903 18.848 16.381C17.1976 16.2978 15.5832 15.8677 14.1102 15.1187C12.6372 14.3697 11.3386 13.3186 10.299 12.034C9.76844 12.95 9.60579 14.0334 9.844 15.0648C10.0822 16.0962 10.7035 16.9985 11.582 17.589C10.9231 17.568 10.2787 17.3894 9.70303 17.068C9.6903 18.0364 10.0156 18.9788 10.6228 19.7332C11.2301 20.4876 12.0813 21.0066 13.03 21.201C12.4196 21.3671 11.7792 21.391 11.158 21.271C11.4212 22.0969 11.9363 22.8197 12.631 23.338C13.3258 23.8563 14.1654 24.1441 15.032 24.161C14.1716 24.8366 13.1864 25.3358 12.1329 25.6303C11.0793 25.9247 9.97802 26.0086 8.89203 25.877Z" fill="white"/>
</svg>
